<?xml version="1.0" standalone="no"?><!-- Generator: Adobe Fireworks CS6, Export SVG Extension by Aaron Beall (http://fireworks.abeall.com) . Version: 0.6.1  --><!DOCTYPE svg PUBLIC "-//W3C//DTD SVG 1.1//EN" "http://www.w3.org/Graphics/SVG/1.1/DTD/svg11.dtd"><svg id="aperto_Web-Estate_awards_export.fw-Award%20Logos%20Retina" viewBox="0 0 720 880" style="background-color:#ffffff00" version="1.1"	xmlns="http://www.w3.org/2000/svg" xmlns:xlink="http://www.w3.org/1999/xlink" xml:space="preserve"	x="0px" y="0px" width="720px" height="880px">	<g id="Ebene%201">		<g>			<g>				<g>					<path d="M 401.1396 455.6021 L 380.1504 455.6021 L 375.1025 470.9805 L 363.8955 470.9805 L 384.969 411.0078 L 396.333 411.0078 L 417.4128 470.9805 L 406.1877 470.9805 L 401.1396 455.6021 ZM 390.603 421.4019 C 390.603 421.4019 389.2502 427.312 388.0757 430.6855 L 382.771 446.7329 L 398.4346 446.7329 L 393.1238 430.6855 C 392.0281 427.2998 390.7688 421.4019 390.7688 421.4019 L 390.603 421.4019 Z" fill="#2e2d2d"/>				</g>				<g>					<path d="M 433.5051 411.0166 L 452.7974 411.0166 C 459.2888 411.0166 462.2354 411.522 464.8408 412.7144 C 470.8279 415.4072 474.623 421.1631 474.623 429.0972 C 474.623 436.2808 470.834 442.9351 464.512 445.498 L 464.512 445.6675 C 464.512 445.6675 465.3481 446.5059 466.5408 448.627 L 478.8408 471.0044 L 466.71 471.0044 L 454.8232 448.6211 L 444.3682 448.6211 L 444.3682 470.998 L 433.499 470.998 L 433.499 411.0166 L 433.5051 411.0166 ZM 454.144 439.1406 C 459.9561 439.1406 463.582 435.6787 463.582 429.6812 C 463.582 423.9375 461.1426 420.3945 452.6284 420.3945 L 444.365 420.3945 L 444.365 439.1494 L 454.144 439.1406 L 454.144 439.1406 Z" fill="#2e2d2d"/>				</g>				<g>					<path d="M 497.3845 411.0166 L 517.7849 411.0166 C 536.238 411.0166 548.2813 421.998 548.2813 440.9106 C 548.2813 459.8447 536.238 470.9741 517.7849 470.9741 L 497.3845 470.9741 L 497.3845 411.0166 ZM 517.196 461.6055 C 529.333 461.6055 537.0745 454.4277 537.0745 440.9106 C 537.0745 427.5723 529.1428 420.3916 517.196 420.3916 L 508.2595 420.3916 L 508.2595 461.6055 L 517.196 461.6055 Z" fill="#2e2d2d"/>				</g>				<g>					<path d="M 567.7639 455.6021 C 567.7639 455.6021 574.2583 461.9414 582.6816 461.9414 C 587.2256 461.9414 591.3647 459.5811 591.3647 454.6821 C 591.3647 443.9458 563.1267 445.8037 563.1267 427.3994 C 563.1267 417.4287 571.7222 410 583.1829 410 C 594.9849 410 601.0503 416.418 601.0503 416.418 L 596.3284 425.2905 C 596.3284 425.2905 590.5798 420.0586 583.0862 420.0586 C 578.0383 420.0586 574.0681 423.0181 574.0681 427.2363 C 574.0681 437.8848 602.2036 435.2612 602.2036 454.4399 C 602.2036 463.9844 594.9695 472 582.4885 472 C 569.1802 472 561.8496 463.8208 561.8496 463.8208 L 567.7639 455.6021 Z" fill="#2e2d2d"/>				</g>				<g>					<path d="M 278.4971 411.0166 L 268.6379 452.4971 C 267.8831 455.8774 267.6326 458.8247 267.6326 458.8247 L 267.459 458.8247 C 267.3699 458.8247 267.2869 455.9561 266.3616 452.4971 L 255.7446 411.0166 L 246.3069 411.0166 L 235.5222 452.4971 C 234.5923 455.9502 234.5125 458.8247 234.4248 458.8247 L 234.2588 458.8247 C 234.2588 458.8247 233.9929 455.8682 233.2502 452.4971 L 226.1899 421.4385 L 220.8809 444.085 L 227.5984 470.9805 L 240.1565 470.9805 L 249.3425 435.5093 C 250.3511 431.624 250.8643 427.6567 250.8643 427.6567 L 251.0242 427.6567 C 251.0242 427.6567 251.5283 431.624 252.5459 435.5093 L 261.7437 470.9805 L 274.2915 470.9805 L 289.7253 411.0078 L 278.4971 411.0166 L 278.4971 411.0166 Z" fill="#bcbcbc"/>				</g>				<g>					<path d="M 346.0085 411.0166 L 336.1433 452.4971 C 335.3916 455.8774 335.1379 458.8247 335.1379 458.8247 L 334.9614 458.8247 C 334.8843 458.8247 334.8013 455.9561 333.8774 452.4971 L 323.2515 411.0166 L 313.8213 411.0166 L 303.0322 452.4971 C 302.0977 455.9502 302.0239 458.8247 301.9377 458.8247 L 301.7642 458.8247 C 301.7642 458.8247 301.5105 455.8682 300.7556 452.4971 L 293.6516 421.2993 L 288.344 443.9458 L 295.1113 470.9863 L 307.6621 470.9863 L 316.845 435.5156 C 317.8533 431.627 318.3694 427.6597 318.3694 427.6597 L 318.5356 427.6597 C 318.5356 427.6597 319.0427 431.627 320.0542 435.5156 L 329.2458 470.9863 L 341.7966 470.9863 L 357.2305 411.0166 L 346.0085 411.0166 L 346.0085 411.0166 Z" fill="#bcbcbc"/>				</g>				<g>					<path d="M 123.2534 455.6021 L 102.2688 455.6021 L 97.2131 470.9805 L 86 470.9805 L 107.0691 411.0166 L 118.45 411.0166 L 139.5159 470.9805 L 128.3091 470.9805 L 123.2534 455.6021 ZM 112.7209 421.4019 C 112.7209 421.4019 111.3669 427.312 110.1926 430.6855 L 104.8833 446.7329 L 120.5588 446.7329 L 115.2407 430.6919 C 114.1489 427.312 112.8811 421.4019 112.8811 421.4019 L 112.7209 421.4019 Z" fill="#2e2d2d"/>				</g>				<g>					<path d="M 198.8533 452.4912 C 199.7769 455.9502 199.8584 458.8188 199.9417 458.8188 L 200.1121 458.8188 C 200.1121 458.8188 200.3718 455.8564 201.1218 452.4912 L 210.978 411.0078 L 222.188 411.0078 L 206.7617 470.9805 L 194.2097 470.9805 L 185.0269 435.5063 C 184.02 431.6211 183.5037 427.6538 183.5037 427.6538 L 183.3362 427.6538 C 183.3362 427.6538 182.835 431.6211 181.8191 435.5063 L 172.6304 470.9741 L 160.0752 470.9741 L 145.0803 411.0166 L 156.2876 411.0166 L 165.73 452.4971 C 166.4907 455.8774 166.7415 458.8247 166.7415 458.8247 L 166.9104 458.8247 C 167.001 458.8247 167.072 455.9561 168.0078 452.4971 L 178.7954 411.0166 L 188.2212 411.0166 L 198.8533 452.4912 Z" fill="#2e2d2d"/>				</g>			</g>			<g>				<path d="M 625.7107 410.8564 C 631.438 410.8564 636 415.4951 636 421.3384 C 636 427.2148 631.4351 431.8237 625.7107 431.8237 C 620.0862 431.8237 615.5483 427.2178 615.5483 421.3384 C 615.5483 415.5015 620.0862 410.8564 625.7107 410.8564 ZM 625.7107 430.6074 C 630.792 430.6074 634.6958 426.5825 634.6958 421.3477 C 634.6958 416.1338 630.7891 412.085 625.7107 412.085 C 620.7141 412.085 616.8374 416.146 616.8374 421.3477 C 616.8374 426.5889 620.72 430.6074 625.7107 430.6074 ZM 622.3716 415.5557 L 626.2061 415.5557 C 628.1563 415.5557 629.5571 416.8965 629.5571 418.918 C 629.5571 420.6274 628.5308 421.7227 627.3352 422.0132 L 627.3352 422.0708 C 627.3352 422.0708 627.4346 422.2222 627.7153 422.7124 L 629.998 427.1426 L 628.5789 427.1426 L 626.1245 422.3008 L 623.6335 422.3008 L 623.6335 427.1426 L 622.3806 427.1426 L 622.3716 415.5557 L 622.3716 415.5557 ZM 626.061 421.1963 C 627.3923 421.1963 628.259 420.3398 628.259 418.9146 C 628.259 417.5317 627.3923 416.7056 626.061 416.7056 L 623.6335 416.7056 L 623.6335 421.1963 L 626.061 421.1963 Z" fill="#2e2d2d"/>			</g>		</g>	</g>	<g id="Ebene%202">	</g></svg>