<?xml version="1.0" encoding="utf-8"?>
<!-- Generator: Adobe Illustrator 20.0.0, SVG Export Plug-In . SVG Version: 6.00 Build 0)  -->
<svg version="1.2" baseProfile="tiny" id="Слой_1"
	 xmlns="http://www.w3.org/2000/svg" xmlns:xlink="http://www.w3.org/1999/xlink" x="0px" y="0px" viewBox="0 0 200 184"
	 overflow="scroll" xml:space="preserve">
<path fill="#03161A" d="M92.4405823,31.3604794c0.836235,0.5213642,1.6724625,1.0427265,2.5087051,1.5640888
	c0.0287476,2.5709229,0.8129044,3.4216232,3.3192368,3.6481323c1.9447021,0.1757545,3.7997131-0.2028275,5.6627274-0.7288361
	c8.8622131-2.5021782,17.8626633-2.5913506,26.9878006-1.8945503c4.8426514,0.3697815,9.5858917,1.0577393,14.3188019,2.0271416
	c1.7003784,0.348278,2.810791-0.7430534,3.9093323-1.7887993c1.2126007-1.4436417,2.4251862-2.887291,3.6377869-4.3309345
	c1.2970123-0.5205612,2.0867004-1.6488743,2.9891052-2.6042538c7.3217926-7.7517128,15.7432251-14.0805225,24.9945831-19.3206062
	c1.0458069-0.5923548,2.2421265-2.2131529,3.6189117-0.3284688c0.4646301,2.0266442,0.1474457,4.0811143,0.2390289,6.1188321
	c-0.0188446,4.0636444-1.1096802,7.9151802-2.3539734,11.7347755c-0.2073822,0.6365776-0.4329224,1.2900352-0.9373779,1.751543
	c-5.7118378,5.2254047-11.2301483,10.697588-18.1691132,14.3699474c-1.4756775,0.0653191-2.7355347,0.9358788-4.1912689,1.1251221
	c-0.8553772,0.1112061-0.5713043,0.8071632-0.4648285,1.3563232c0.7048798,2.4969101,1.8128357,4.8470535,2.5466766,7.330761
	c0.4509735,1.5263329,0.7966766,3.0599327,0.917099,4.6456528c0.3926544,3.28582,0.350769,6.6263313,1.2597504,9.8435326
	c0.9387665,3.3431702,1.655304,6.7688751,3.5587311,9.763916c1.1804962,2.9292068,0.5564117,5.661026-0.90065,8.3006439
	c-2.8144989,6.4711456-7.8224487,11.1454697-12.9191742,15.746315c-0.9853668,0.8622742-1.7385406,2.0015182-3.0208282,2.5118713
	c1.2696381-0.4652176,1.9963074-1.5938339,2.9821777-2.4097366c0.4098511-0.4204788,0.9183807-0.7199402,1.3352356-1.1280212
	c1.2831879-1.2561646,2.3216858-0.9630737,3.2354584,0.4685593c2.1618042,3.3869629,3.9196777,6.9346161,4.4965668,10.9719238
	c0.836792,4.0887985,0.3142548,8.242691,0.6166687,12.3545761c-1.4045105,6.8804474-4.7145844,12.7673035-9.3087006,18.0119171
	c-1.1233673,1.2823944-2.654892,1.194519-3.8875885,0.9743347c-1.0037994-0.1793365-2.0645599-0.4824677-3.1097107-0.7068939
	c-3.1770935-0.6822205-4.1732788-3.1374054-4.7509918-5.9226379c-0.1156464-4.4891968-0.0354614-8.9762115-0.0489655-13.4586411
	c0.1398468-2.5523758,0.7705994-5.0022125,1.5619049-7.1552658c-2.770401,7.087944-2.1155701,14.6955414-1.3389282,22.2233887
	c0.1595917,1.5467072,1.3618317,3.5768433,3.7112885,4.1236267c1.3301392,0.3095703,2.7332611,0.5451202,4.0660706,0.9383087
	c1.1329193,0.334259,3.0003967,0.6360931,4.1002045-1.2453613c0.984024-1.6833954,2.0418701-1.5027466,2.8270569,0.2579803
	c1.7561493,3.9380188,4.1638489,7.6259766,4.6601868,12.0591736c0.4546356,4.0610046-0.5797577,7.5464172-3.7871094,10.2465973
	c-5.9878845,2.3509369-11.5999298,1.1233826-17.2069702-1.5040283c-5.2075806-2.4402008-10.5471344-1.9692841-15.9003448-0.1114807
	c-5.8498459,2.0301819-11.5838928,4.4140167-17.6115875,5.9178772c-7.6606522,1.9113007-15.3911972,2.0910339-23.1798401,0.9736328
	c-2.0267563-0.2907562-3.8152466-1.2223206-5.6622009-2.0035248c-0.3068085-0.1394653-0.6216507-0.2985077-0.8183289-0.5670471
	c-4.1941223-5.7266693-7.4694443-11.8303375-8.1603241-19.0778656c-0.2045288-2.1454773,0.6364822-3.0579834,2.6541138-3.400528
	c1.8966751-0.3220062,3.7406006-0.9242706,5.4208832-1.9110718c0.8482437-0.4981689,2.0195923-0.8648682,2.0033875-2.0242157
	c-0.0149689-1.0723114-1.1900635-1.2807007-1.9684906-1.7076111c-1.4713135-0.8068695-3.0666122-1.3389893-4.6213608-1.9559021
	c-1.7739334-0.7038879-2.4822922-1.6296844-2.1286316-3.8178558c0.760582-4.7058945,2.2807159-9.2065506,3.2390442-13.8477249
	c0.4356613-2.1098709,2.0311966-2.7462006,3.8349609-3.0398788c2.337265-0.3804932,4.5648422-1.0248566,6.6137085-2.2352829
	c0.6485291-0.3831177,1.4522552-0.6865997,1.4613419-1.5677032c0.0102692-0.9937363-0.8445435-1.3987656-1.591217-1.7424698
	c-1.6721497-0.7697067-3.3829803-1.4598846-5.1532593-1.9742584c-1.8948593-0.55056-2.4975815-1.783165-2.0584106-3.6393814
	c1.9145126-8.0916901,3.0541611-16.3257446,4.310791-24.5293198c0.8034821-5.2453308,0.7650681-10.6117554,1.6421356-15.8571434
	c0.5988846-3.5816269,0.8314667-7.3135147,2.9968567-10.4626846c2.6883316-0.7981224,3.3769302-3.4695854,4.8912048-5.3479156
	c0.5852356-0.7259445,0.2246704-1.6289063-0.8721924-1.8466949c-2.1087723-0.4187126-4.2292862-1.0017471-6.2993164,0.1789894
	c-7.1408768-1.5342407-13.9208145-4.0560188-20.3927689-7.4245491c-0.599968-0.3122711-1.2020111-0.6377983-1.5624237-1.2252007
	c-2.9754677-4.8494072-6.1091347-9.6355171-7.2797928-15.3307362c-0.7453842-3.626297-0.118927-4.1460915,3.4309464-3.5768242
	c11.8705139,1.9036064,22.7640076,6.3667908,33.0515976,12.448616
	C91.0444641,30.9800491,91.6101761,31.4998856,92.4405823,31.3604794z"/>
<path fill="#03161A" d="M61.2267075,108.7141571c-0.6909752,3.1832047-2.3523979,6.0008087-3.4400787,9.0376358
	c-0.4801102,1.340477-0.1841698,1.8973618,1.0235901,2.4546738c2.2629128,1.0442123,4.4326248,2.289978,6.6926804,3.3409958
	c1.0719376,0.4984665,1.3008347,0.9711685,0.7461395,2.0746689c-1.1925888,2.3725357-2.1596909,4.8588867-3.3645058,7.2246094
	c-0.7023277,1.3790436-0.4494591,2.0728912,0.9789581,2.6302185c1.215229,0.4741669,2.3308754,1.2035828,3.4905891,1.8200684
	c-0.0990829,0.4255371-0.3560104,0.7078552-0.7676926,0.8500519c-2.0469437,0.0036774-3.6012039-1.2208405-5.2485886-2.1714935
	c-1.103199-0.6366272-0.9206734-1.6558685-0.5152473-2.6614685c0.8147049-2.0207062,1.6742172-4.0225525,2.6807632-5.9548569
	c0.7590294-1.4571381,0.486454-2.4860153-0.9820137-3.3306885c-1.6742096-0.9630432-3.3560066-1.9012527-5.157444-2.590065
	c-1.6931877-0.6474304-2.1375999-1.6674118-1.8499146-3.5158157c0.6287613-4.0398865,1.4873466-8.0309143,2.2691116-12.0371552
	c0.2785721-1.4275894-0.5315285-1.5637131-1.4970779-1.6720428c-3.7399178-0.419548-7.4892426-0.7495193-11.1683769-1.6122208
	c-3.0484772-0.7148285-3.535862-1.391922-2.582428-4.3348999c1.4215279-4.3878021,3.3098717-8.5976486,5.1747208-12.8074341
	c0.9170303-2.0701447,1.4946022-4.2732086,2.5409889-6.2783585c0.8975143-1.7198868,0.5086136-2.5731583-1.4550056-2.9214401
	c-4.6178246-0.8190613-9.1892509-1.8796082-13.7830734-2.8245773c-10.2014465-2.0984497-20.501255-3.0886459-30.9214859-2.6317825
	c-3.3227689-0.7922745-3.6103172-1.3620758-2.3134456-4.430481c4.2295918-10.0072327,8.959672-19.7753067,14.0250845-29.383152
	c1.3368425-2.5356674,1.9163218-2.7210732,4.4777327-1.2503433c7.092617,4.0725021,14.0675602,8.3385391,20.9931087,12.6909332
	c8.4130592,5.2872238,16.6609612,10.8228111,24.9418945,16.309597c2.384201,1.5797348,2.3243179,1.5716248,0.7219543,4.0119934
	c-5.7704201,8.7882156-11.6208229,17.5234833-17.3904953,26.3120575c-1.5207291,2.3163986-1.3471985,2.5607834,1.3441849,3.6422424
	c3.4104309,1.3703995,6.8625946,2.6267471,10.3187943,3.8665314c1.3956528,0.5006409,1.5909958,1.1082077,1.0581551,2.4218063
	C61.7891045,106.1752548,60.8544922,107.2791901,61.2267075,108.7141571z"/>
<path fill="#010101" d="M66.7803345,137.8855743c0.191452-0.1960449,0.3829117-0.3920898,0.5740509-0.5883484
	c0.6298828,0.0024414,1.2267151,0.2547455,1.4151993-0.8278046c2.7784042-15.957077,7.5608215-31.4963989,9.9801941-47.5258713
	c0.9797745-6.4914932,1.8252869-13.0140381,2.411972-19.5511627c0.6299667-7.0193138,1.7297897-13.8856583,4.8233109-20.2800217
	c0.7895737-1.6320686,0.368866-2.1068039-1.2756424-2.440506c-12.889801-2.6155968-24.4192734-8.2554626-35.0543289-15.8777981
	c-5.139492-3.6835613-9.5387115-8.1245079-13.5164032-13.0004063c-0.3662376-0.4489384-1.0593796-0.9773445-0.7578201-1.7111588
	c0.2256927-0.5491905,0.8709145-0.3994522,1.3434296-0.3751659c11.0619888,0.5685215,22.0907402,1.2078648,32.7545242,4.7307529
	c8.1342468,2.6872234,15.7099533,6.4362755,22.9616241,10.9223576c-0.7595825,0.7584743-1.3158951,0.1530838-1.9659348-0.2380161
	C79.937088,24.782547,68.5880051,20.6091881,56.5099373,18.3414288c-1.8814125-0.3532524-2.5555229,0.2659702-2.2476082,2.039957
	c1.0985489,6.3289223,4.29002,11.7745399,7.9500999,16.8159218c1.5800591,2.1763611,4.8406105,2.8464928,7.5044441,3.80233
	c4.5219727,1.6225777,8.972168,3.5102501,13.77285,4.2379761c1.1584549-0.5501251,2.2571716-0.1348953,3.3361053,0.2493515
	c1.1980362,0.4266548,1.6564865,1.3010483,1.2779007,2.5322151c-0.5290146,1.7204056-0.9186478,3.5102043-2.2300568,4.8748665
	c-2.1375961,3.1564178-2.5491028,6.8801918-2.9161377,10.4561653c-1.2555923,12.2330933-2.8730164,24.4039612-5.0646515,36.504631
	c-0.3504333,1.9348679-1.8861313,4.0363388-0.7706146,5.7760315c0.9917679,1.5467072,3.451355,1.3759308,5.1686096,2.2267075
	c1.5383453,0.762146,3.8089447,0.9818573,3.8488464,3.0306168c0.0379333,1.947525-2.2453461,2.1874619-3.6356201,3.0197449
	c-1.9143295,1.146019-4.133194,1.2705536-6.2310867,1.6981964c-1.5306015,0.3119965-2.1106491,1.1369476-2.4206924,2.4419098
	c-1.0763397,4.5301666-2.4024963,8.9945068-3.2928543,13.5786743c-0.3686676,1.8981323,0.2451859,2.5858002,1.7794418,3.1761627
	c1.9441299,0.7480469,3.8923035,1.5183868,5.7449951,2.4629669c2.2747879,1.1597595,2.3271179,2.4275513,0.1831512,3.8444519
	c-2.2577362,1.4920807-4.8111496,2.3486938-7.4712906,2.7210541c-1.2353058,0.1728821-1.4171524,0.7227936-1.5106125,1.7863159
	c-0.211647,2.4082031,0.3874664,4.7266998,1.1930008,6.8542938c1.792984,4.7356415,3.6007156,9.5402374,7.4509659,13.1413116
	c2.9426575,2.1949921,5.756073,4.607605,9.4529419,5.517807c0.4223862,0.1040192,0.6906891,0.4503632,0.7902756,0.895813
	c-0.1872787,1.0380859-0.4479828,2.0130157-1.7830353,2.0535583c-1.5462265-1.6295471-3.3813629-2.8469391-5.2674026-4.0684052
	c-6.0672073-3.9293671-8.7344131-10.2881775-11.3878937-16.6014099c-1.1350098-2.70047-1.6349335-5.5708313-1.688324-8.486908
	c-0.0221634-1.2101288-0.4523087-1.7614288-1.5811234-2.1344147c-3.4603233-1.1433563-6.866333-2.4516144-10.3296356-3.5852509
	c-1.4783783-0.4839172-1.7506485-1.1536865-1.0550766-2.5225372c0.9730415-1.914856,1.7962952-3.9058533,2.6836357-5.8642731
	c0.7194633-0.1030273,0.7903671,0.4208984,0.8915863,0.916687c-0.0501976,1.2800446-0.624527,2.3978424-1.1611824,3.5137024
	c-0.7003708,1.4562836-0.2719612,2.386322,1.2070465,2.8954926c2.2720375,0.7821503,4.5629425,1.508255,6.8029785,2.3848724
	c0.5818787,0.2277222,1.3058853,0.7098083,1.8405914,0.0872192c0.5337372-0.6214752-0.0383377-1.2375183-0.3592911-1.8022003
	C66.8190536,138.5206757,66.6682205,138.2348633,66.7803345,137.8855743z"/>
<path fill="#010101" d="M183.9498749,7.1692953c-4.1346893,1.2393618-7.4843445,3.8963203-10.9924164,6.222106
	c-6.7738342,4.4909573-12.7754211,9.9119415-18.38414,15.7805996c-0.4312134,0.4512081-0.8113556,1.4756355-1.7882385,0.6846104
	c11.1373596-12.7236404,24.5061798-22.2479134,40.4062653-28.1216316c1.7721252-0.6546509,3.4607239-1.6019121,5.4100189-1.7203313
	c0.9675903-0.0587771,1.8291779,0.0009455,1.1634521,1.3096969c-4.546051,8.9367657-9.3506165,17.7259769-16.6096954,24.8232059
	c-5.9664001,5.8333721-11.9665375,11.6609669-19.368988,15.743536c-0.5665283,0.2370186-1.0340271,0.3079643-0.9410248-0.5611038
	c6.6738739-3.8670616,12.3792877-8.9682808,17.8478394-14.3164902c1.885849-1.844347,1.8490448-4.7523003,2.535141-7.193285
	c0.5021057-1.7864437,0.9357452-3.7149162,0.7143707-5.6559601C184.3653564,11.8330412,184.3503418,9.5013714,183.9498749,7.1692953
	z"/>
<path fill="#030203" d="M61.2267075,108.7141571c-0.9749947-1.3258972,0.1252975-2.3936157,0.5710068-3.437233
	c0.5537682-1.2966309,0.471981-1.884201-0.9730911-2.385704c-3.8600311-1.3396072-7.6473618-2.8874664-11.4960785-4.2615356
	c-1.6269417-0.5808411-1.8398361-1.205452-0.8371124-2.6973953c6.2352066-9.2773438,12.3082047-18.6644135,18.6068726-27.8978348
	c1.3681335-2.0055923-0.1780243-2.3281708-1.143219-2.9602966c-10.0514183-6.5828514-20.0912323-13.1854553-30.2296104-19.6326561
	c-5.2772007-3.3558884-10.73666-6.4261742-16.1310387-9.5961151c-1.4667835-0.8619385-2.3331985-0.6811447-3.2793236,1.1134987
	c-5.0656834,9.6087646-9.6797152,19.4233131-14.0620689,29.3563309c-0.9397304,2.1299896-1.0875822,3.6677475,1.6861665,4.164444
	c0.9315991-0.129837,1.8199544,0.0581665,2.6941247,0.3611755c10.9798241,3.8058929,21.9974957,7.4930725,33.170742,10.7012177
	c2.7987404,0.8035965,3.2461929,1.6272888,2.3323441,4.4053497c-1.4634323,4.4487534-2.4631996,9.0403366-4.1186447,13.4249573
	c-0.7139168,1.8908844-0.2981148,2.9797592,1.7192268,3.5536423c3.2173462,0.9152603,6.2960968,2.2492905,9.4621048,3.3283997
	c2.430912,0.8285751,2.6904907,1.4707642,1.9570732,3.961586c-1.2512589,4.2495041-2.5092659,8.4972305-4.0675049,12.650444
	c-0.3349533,0.5143433-0.7268448,0.8481064-1.3520622,0.4161377c0.0202866-3.1302109,1.4717178-5.9023285,2.2203827-8.8502197
	c0.2230606-0.8783112,0.5112495-1.7400589,0.7680283-2.6098557c1.0067673-3.4102402,1.0019226-3.3975449-2.4642982-4.6483994
	c-3.1300926-1.1295395-6.2195168-2.3815842-9.3846283-3.4001236c-1.5660172-0.5039673-1.8607178-1.0927811-1.3321571-2.684967
	c1.6462708-4.959053,2.9813347-10.0223465,4.6652336-14.9675293c0.6539612-1.9205246,0.265358-2.5049133-1.6373558-3.055275
	c-11.8208599-3.41922-23.5852451-7.0385437-35.0344658-11.5752029c-4.5340977-1.7965851-4.0269198-0.8452225-2.2461247-5.2534332
	c4.2852187-10.6076546,9.6088343-20.7281609,14.6869755-30.964035c0.6690292-1.3485374,1.2157936-1.6423187,2.6015053-0.9323807
	c6.3528481,3.2547493,12.3226566,7.144062,18.393795,10.8703613c10.2366409,6.2829552,20.2523994,12.9005051,30.2090302,19.6144562
	c1.6224289,1.0940399,1.9500656,1.7157288,0.7174072,3.5177307C61.8601761,77.173111,56.0119286,86.133873,50.132473,95.0722122
	c-0.8680916,1.319725-1.9242592,2.4366913,0.9898148,3.1457291c3.8322792,0.9324646,7.4329758,2.7958603,11.1658783,4.1703415
	c1.1150627,0.4105835,1.403492,0.8027573,0.8096199,1.9308243
	C62.3585472,105.7232971,61.8403549,107.2438583,61.2267075,108.7141571z"/>
<path fill="#224170" d="M97.9987183,34.8838158c4.7218933-1.2264099,9.129776-3.4643574,13.9504395-4.3647175
	c12.2953339-2.296402,24.2819672-1.5601978,35.7945709,3.7143459c-0.7696686,1.5227394-2.1134338,1.7786217-3.6128693,1.5687866
	c-4.447998-0.6224594-8.8849487-1.2572746-13.3751831-1.6066513c-7.4227142-0.5775375-14.7813263-0.8239021-22.1308746,0.7797394
	c-2.3529968,0.5134125-4.6738281,1.1629906-7.0386353,1.6109657
	C100.0097122,36.8849144,98.5725021,36.7597694,97.9987183,34.8838158z"/>
<path fill="#030202" d="M152.7519226,99.672821c2.4801636-3.2424545,5.8186493-5.6762466,8.2925262-8.9533997
	c1.602356-2.1226273,3.0632629-4.2917099,4.2717438-6.646286c0.3514404-0.2907715,0.7004089-0.3283005,1.0456543,0.0103073
	c-1.4604034,4.5392303-4.7363129,7.8172302-7.9414063,11.0781784c-1.3976135,1.4219666-1.3874817,2.3437347-0.3582306,3.9591675
	c4.9499969,7.7690659,6.8785553,16.20961,4.7285919,25.2871323c-0.9826508,4.1489029-2.7965698,8.0518112-5.3469696,11.4856644
	c-1.2725525,1.7133636-1.0100861,3.1233826-0.2762604,4.8329315c1.5370636,3.5808563,3.5070038,6.9456329,4.3047333,10.8844452
	c0.7798157,3.850296-0.1424103,7.0630035-2.2082214,10.147995c-1.3451843,2.0088654-2.6422729,4.0720367-4.8017731,5.3557281
	c-0.6338654,0.261261-1.0343933,2.4121399-1.9702454,0.2439117c1.0935211-2.1367798,2.7288208-3.736969,4.8397369-4.8638
	c4.4479523-4.967514,4.0556793-10.4003601,1.4946289-16.0103302c-0.8975372-1.9660797-2.0257568-3.8324738-2.8366089-5.8304749
	c-0.5295563-1.3049011-1.3773956-1.5293121-1.7484741-0.3535919c-0.8061676,2.5540924-2.9272308,2.0257874-4.3728638,1.7776031
	c-1.2902679-0.2215424-2.6770172-0.3856049-3.9595947-0.7865906c-3.0193024-0.9438782-4.8402405-2.8200989-5.082901-6.1930695
	c-0.5079651-7.0616455-0.8904877-14.088356,1.6576385-20.895752c0.3097687-0.8275299,0.3473816-1.8572998,1.6569061-2.1765366
	c-0.3907166,3.01194-2.1515656,5.6560745-1.9266968,8.7008743c-0.4273529,4.8855667-0.4311066,9.7710876,0.0018005,14.6565552
	c0.7553406,2.4542236,1.7976379,4.7605743,4.7693024,4.894989c1.2120819,0.0548248,2.0432434,0.9235229,3.2643433,0.8786316
	c2.2281494-0.0819244,3.2554321-1.6689758,4.4411163-3.1212921c3.6843109-4.5129395,5.8634949-9.7776489,7.6175232-15.25457
	c-0.5212097-2.5079269,0.1920166-5.0278702-0.1473846-7.5756378c-0.2459869-1.8466415-0.3973236-3.702713-0.8462067-5.5193939
	c-0.4083557-3.9832458-2.2689819-7.3682861-4.4172363-10.6239777c-0.5225525-0.7919312-1.1708374-1.0870209-2.0400696-0.2787552
	c-0.5930634,0.551445-1.3606262,0.9152145-2.0501709,1.3628845c-0.176239-0.0862045-0.2429352-0.1850204-0.2006836-0.2966843
	C152.6507263,99.7318497,152.6991272,99.672821,152.7519226,99.672821z"/>
<path fill="#04161A" d="M86.3893127,174.0804596c0.5231781-0.7020874,1.0463562-1.4041901,1.5695343-2.106308
	c0.8188171-0.6590271,1.6363983-0.3657379,2.4566269-0.0057678c2.3512497,1.0830841,4.8591003,0.8654938,7.3408813,0.9079742
	c1.2152405,0.020813,2.5593719-0.2040253,3.2784271,1.2078247c0.5622253,1.4709778,1.1443329,2.9347687,1.6803589,4.4152222
	c0.4272003,1.1799164,0.8668976,2.4898834-0.2784424,3.433548c-1.375061,1.1329346-3.0691223,1.85289-4.8073654,0.998764
	C93.2673569,180.7883606,89.4578857,177.8917542,86.3893127,174.0804596z"/>
<path fill="#051619" d="M152.7820435,167.0762329c0.5173492,1.9292603,1.1292877-0.34935,1.6807861,0.0381317
	c-0.6797638,1.0291748,0.0765381,1.7063293,0.6130066,2.4169312c1.3036652,1.7269135,2.4812317,3.5349274,3.2659912,5.5543823
	c0.5026093,1.293396,1.135437,2.6984253-0.2662354,3.8632965c-1.3409882,1.1144257-2.8534698,1.3397064-4.3803253,0.431015
	c-3.5584869-2.1177979-7.0515289-4.3347626-9.9889221-7.3059235c0.0854645-0.3851776,0.314621-0.6276093,0.7037964-0.7113495
	c1.2349243-0.0512238,1.9802246,1.6733093,3.1330566,1.1653442c1.0615234-0.4677277,1.1017456-1.9979858,1.8302917-2.9048309
	C150.2846832,168.4890747,151.0396271,167.1112823,152.7820435,167.0762329z"/>
<path fill="#152D47" d="M97.9987183,34.8838158c1.2853928,1.0168419,2.5604401,1.4643211,4.3310699,0.9986572
	c7.7446518-2.0367813,15.6305008-3.1948013,23.6538773-2.5486565c5.1091995,0.4114685,10.2550125,0.6293564,15.2881699,1.7412643
	c2.2695313,0.5013847,4.4309998,0.3292809,6.4725494-0.841259c0.467453-0.0160484,0.9355469-0.0317154,1.4032135-0.0467682
	c-0.3160095,2.4473457-1.9345398,3.016571-3.9849548,2.4968796c-9.9834747-2.5303764-20.1713943-2.7189713-30.3351593-2.2552185
	c-4.3354874,0.1978226-8.6510849,1.5176659-12.9347153,2.5808945c-2.670578,0.6628609-5.6588058,1.207695-7.713707-1.7722702
	c-0.867981-1.2587242-0.5099335-1.8823738,0.7698059-2.3131142C95.9657669,33.5776482,96.9822388,34.230732,97.9987183,34.8838158z"
	/>
<path fill="#050404" d="M144.2676849,171.4818878c-0.1872406,0.1972809-0.3744659,0.3945313-0.5615234,0.59198
	c-1.9683685-1.2402344-4.2103271-0.7872314-6.3236237-0.9051971c-4.7354126-0.2643585-9.4683456-0.2780609-14.1990356-0.9254456
	c-2.3914032-0.3272552-4.9619751,0.2814484-7.3994446,0.7424316c-4.9352112,0.9333344-9.8349228,2.0543671-14.7492676,3.0982666
	c-1.7981949-0.9721985-3.7436981-0.4374542-5.6218338-0.5126648c-1.8908539-0.0756989-3.7523727-0.1766663-5.4849396-1.0343018
	c0.5533066-0.6308594,1.3303986-0.7658539,2.0674744-0.7064972c8.0482483,0.6480255,15.7823257-1.3210907,23.5883636-2.7415619
	c4.9686356-0.9041595,9.9388885-1.1224365,14.9578934-0.0810242c3.1196136,0.6472931,6.3429718,0.16362,9.5180054,0.2647552
	c1.1738129,0.0373993,2.3535004,0.0568695,3.4203644,0.6347504
	C144.0924377,170.2390594,144.6343079,170.6432495,144.2676849,171.4818878z"/>
<path fill="#060505" d="M166.3374481,75.5256653c-2.1691284-2.6276855-2.4888-5.9705658-3.4983826-9.0466537
	c-0.9797668-3.4587517-0.5477753-7.1211395-1.5260315-10.5801201c-0.0505524-3.4751625-1.4385529-6.5916367-2.621582-9.7625046
	c-0.287323-0.7700996-0.5939941-1.5329895-0.8917694-2.2991905c2.2007751-1.9152756,3.0548706-2.1191559,4.5305939-1.0815277
	c-0.6949158,0.4556503-1.357666,0.9741478-2.0932007,1.3504181c-0.8452759,0.4324226-0.9928436,0.9228973-0.596283,1.792305
	c2.5114441,5.5059013,3.5329285,11.3549461,3.9611206,17.3461456c0.2934265,4.1052856,1.724411,7.9076157,3.3055725,11.6580048
	C167.134201,75.4914703,166.8413544,75.6051102,166.3374481,75.5256653z"/>
<path fill="#101119" d="M45.7366142,123.2825699c0.4280434-0.036438,0.8036804-0.1639252,1.0118828-0.5823517
	c0.8692284-0.3077621,1.6407127,0.0586243,2.4093132,0.3712921c3.0133438,1.2258301,5.9100838,2.723526,8.9825439,3.8165817
	c0.9522858,0.3387833,1.9991722,0.8774109,1.8724709,2.060791c-0.1225243,1.1443176-0.1781845,2.5333405-1.7716331,2.8516541
	c-0.0157661-0.3974304-0.0839157-0.7694244-0.4777222-0.9832153c0.5741463-1.3731079,0.2753143-2.0055237-1.2704239-2.6794739
	C52.8907928,126.5673218,49.0912247,125.4041519,45.7366142,123.2825699z"/>
<path fill="#2D281C" d="M166.3374481,75.5256653c0.190033-0.2076721,0.3800659-0.4153519,0.5700684-0.6230698
	c2.2219696,3.2029877,1.2245483,6.2147217-0.5456085,9.1806946c-0.348465-0.003334-0.6968384-0.006813-1.0454865-0.010231
	C166.7564697,81.3553925,167.1420593,78.5116348,166.3374481,75.5256653z"/>
<path fill="#334360" d="M162.3302765,42.7556763c-0.7176514-0.7952843-1.4328613-0.4680176-2.1433563,0.0088806
	c-0.735321,0.4935608-1.4417877,1.0482674-2.3872833,1.0727386c-0.0276031-0.4668808-0.1494293-1.3235855-0.0690155-1.3430099
	c1.6984711-0.4102821,3.2278595-1.6153297,5.1143341-1.1642265c0.1125641,0.5261459,0.6043091,0.4140816,0.941925,0.5605507
	C163.4681396,42.4609642,162.8800964,42.5761452,162.3302765,42.7556763z"/>
<path fill="#B98360" d="M154.7299805,82.1041336c0.3838654,2.7984848-0.7304535,4.7966232-2.7635956,6.7853088
	c-2.7220917,2.6626205-4.4383698,6.2236938-7.1832581,8.9485168c-1.2029877,1.1941986-2.4454803,1.7883224-4.1644287,1.8692703
	c-5.0740967,0.2389603-10.1399689,0.6531525-15.2087479,1.0033798c-1.6708069,0.1154327-3.1309814-0.3384857-4.3202133-1.5538635
	c-1.2291489-1.1279221-1.7042618-2.6590042-2.1278915-4.1799774c-2.4611435-8.8362122-2.1039963-17.630661,0.4746933-26.3734741
	c0.0750046-0.2298279,0.1893768-0.4543839,0.2612915-0.692543c0.0432053-0.1430588-0.0630875-0.1377029-0.2321243,0.0485535
	c-1.2813339,1.4117889-2.7516403,2.6436081-3.8455582,4.2387619c-0.4742737,0.691597-0.901825,1.7069626-2.1203766,1.2785416
	c-0.5564804-0.6165543-0.5783234-1.3620529-0.4334869-2.0991516c0.4445953-2.2626114,1.0015564-4.501503,1.5802231-6.7322845
	c0.2799683-1.0792503,0.9160156-1.9367867,2.1207733-2.1748314c5.0412292,0.7840538,10.0642166,1.6497536,14.1136551,5.1394539
	c0.6762848,0.5828094,1.1826935,0.6706467,1.9689178,0.1804504c3.5605774-2.2199402,7.3491211-3.866272,11.5064087-4.6830215
	c2.6330566-0.5172768,5.0196075-1.7527161,7.2845612-3.2014351c2.0235901-0.3218155,1.8358917,1.3459587,1.9961395,2.4265747
	c0.3991547,2.6917763,0.055954,5.4231682,0.5566254,8.1517525
	C154.8946381,74.3048172,154.9192657,78.2128601,154.7299805,82.1041336z"/>
<path fill="#234373" d="M144.2677002,171.4819031c-0.285553-1.3379822-1.5426941-1.3579712-2.3916626-1.3569641
	c-5.9345398,0.0070953-11.8174591-0.6692505-17.7226563-1.0352173c-5.7447968-0.3560028-11.4258804,1.0357666-17.0069885,2.4745636
	c-5.6798859,1.4642487-11.4659958,0.8827209-17.2183685,0.9727173c-0.511467-0.6959839-1.290184-0.4552155-1.9694519-0.562439
	c-3.8574371-1.3110504-7.6445694-2.7329865-10.0301743-6.3622894c5.5058517,2.3091278,11.3048706,2.4931335,17.1432877,2.3486938
	c7.0755768-0.1750641,13.7499771-2.1114502,20.3853836-4.4237518c5.7768631-2.0130768,11.3360672-4.8981934,17.7551498-4.6710815
	c2.4886169,0.0880432,4.8541718,0.6156464,6.993103,1.628952c5.2930145,2.5075073,10.5620117,4.135437,16.3074493,1.6087341
	c0.3608398-0.1586761,0.624176,0.0942535,0.8188782,0.3910065c-1.3006744,1.7411957-2.8115082,3.2738342-4.5496674,4.5810089
	c-2.1522369,1.4483643-3.6006165,3.4477386-4.4017944,5.8824463c-0.3393402,1.0312805-0.6849365,1.2144012-1.5295258,0.4955444
	C146.0269318,172.7527313,145.1316071,172.1358032,144.2677002,171.4819031z"/>
<path fill="#050D14" d="M109.9869919,59.0815544c-3.067421-2.8308907-2.6264725-6.5548935-2.3584671-10.1209679
	c0.0650711-0.8658257-0.5287247-3.1205635,1.9270477-2.5546036c1.674942,2.8358231,3.3009644,5.7055969,5.6239319,8.0919609
	c0.1502609,0.179451,0.2802734,0.3722687,0.3991852,0.5731316c0.5953598,1.6651154,1.8623581,2.1997147,3.529129,2.2332687
	c2.2750397,0.0457954,4.454834-0.6156387,6.6838226-0.6670036c0.4170761-0.9272995-0.7578278-1.0770912-0.6730499-1.7547035
	c0.7601929-1.5335083,1.549202-3.0536232,2.2706909-4.6051292c0.4979706-1.070797,1.2342377-1.547863,2.0041199-0.4726181
	c1.4454803,2.0187454,3.6984711,2.3883438,5.7692108,3.1340485c1.6581421,0.597126,2.4855347,1.3768349,1.153595,3.0624847
	c-1.0380707,1.3137589-0.2715302,1.8495865,0.9807434,1.8944702c2.2561188,0.0808678,4.4588165,0.4827957,6.6641693,0.8915825
	c0.5505524,0.1020584,0.9355011,0.0027008,1.3005981-0.4628448c3.1529083-4.0203476,6.3079834-8.0394745,7.785141-13.0508423
	c0.1394501-0.4730911,0.3345184-0.7487946,0.7675323-0.8286896c0.4718628-0.0870514,0.7167664,0.1860924,0.9454041,0.6079025
	c2.4042511,4.4353981,3.1812897,9.1631355,2.7050934,14.1546478c-0.1583862,1.6600266-0.1331024,3.3384209-0.1697235,5.0089035
	c-0.0228271,1.0415115-0.0083618,2.1728973-1.4300232,2.1786499c-1.4993591,0.0060654-0.9798279-1.2492981-1.0760956-2.0681915
	c-0.0589294-0.5011978-0.0272064-1.0089264-0.4523315-1.3809547c-1.2721558-1.5093231-0.4618683-3.2906799-0.6577759-4.8151932
	c-0.2069702,1.1423035-1.2901306,1.5143013-2.2302704,2.0340347c-2.6357727,2.2598152-5.9794769,2.7848206-9.1594849,3.6703606
	c-3.2728119,0.9113693-6.4250488,2.0724182-9.236145,4.0025177c-1.0076447,0.6918564-1.8420868,0.3829575-2.4076691-0.3745728
	c-1.804657-2.4171371-4.0913391-3.110054-7.1140976-3.4812622c-3.7125015-0.4559021-7.4660492-1.5210915-11.0476227-2.8827553
	C111.4346924,60.6948624,110.1573029,60.5701332,109.9869919,59.0815544z"/>
<path fill="#6D5146" d="M109.9869919,59.0815544c0.5598068,0.8910332,1.4668198,1.1920433,2.4158554,1.421627
	c1.0766525,0.5652161,2.1190109,1.1745071,3.3530731,1.4145164c0.5107803,0.0993309,1.437233-0.0150261,1.3242035,1.0242538
	c-0.3771591,0.1522942-1.0099945,0.2198753-1.0927734,0.469696c-1.0830078,3.2686424-2.6364365,6.459362-1.9463806,10.0716972
	c0.6152878,0.5395813,0.2483673,1.1250839,0.1867065,1.3319244c1.227066-2.5856171,2.5719833-5.5317383,5.9017715-6.8185272
	c-1.0719681,4.7961884-1.9993515,9.5973206-2.0904922,14.5517273c-0.1060638,5.7661972,1.0880661,11.2462158,3.0507965,16.6082535
	c-1.9464645-0.5320511-3.0633545-2.2165222-4.5241165-3.3870239c-2.9018784-2.3252716-5.6230011-4.8810196-8.3574142-7.4079819
	c-1.109848-1.0256424-1.6828766-2.1500626-1.3699036-3.9384842c1.0676804-6.1010818,1.5932999-12.2489624,1.6687927-18.4804916
	C108.5325623,63.8414612,107.8860245,60.988266,109.9869919,59.0815544z"/>
<path fill="#020202" d="M90.416214,124.8979263c4.4950104,7.7348557,10.8230743,13.505394,18.8858337,17.3130569
	c1.1755981,0.5551758,1.9401245,2.0818329,3.6193161,1.6090851c3.0521164-0.859314,6.1083908-1.9676666,7.5886917-4.890976
	c0.6858597-1.3544464,0.1847458-3.3708954,0.0438309-5.0725098c-0.6067581-7.3266754-3.2077713-13.9371033-7.4143143-19.9247513
	c-1.2249756-1.7436447-2.6073151-3.3767395-3.6531219-5.3222885c1.9942856,0.9347229,3.2658463,2.7744141,4.3838272,4.4537811
	c3.1965256,4.8016205,5.7790222,9.9440994,6.9451599,15.6790314c0.6611176,3.2513123,0.3761826,6.6553345,1.5881119,9.8209076
	c0.0757751,0.197937,0.0286713,0.5882721-0.1123047,0.7021942c-2.5037689,2.0231323-4.5550461,4.4359741-7.9911957,5.4321136
	c-3.6641006,1.0622253-5.4101791-1.6648102-7.8710403-2.8091278c-4.8058395-2.2346954-8.7089615-5.830719-12.4403763-9.5640411
	c-2.1794968-1.4174042-3.305069-3.6779022-4.5290527-5.8248901
	C89.0460052,125.7740631,88.4932861,124.4643173,90.416214,124.8979263z"/>
<path fill="#234373" d="M138.8391113,106.4023361c-1.888916,2.861908-4.0190277,4.3238678-6.4549713,5.1576843
	c-1.8625488,0.6375275-3.3556519-0.6693726-4.5978546-1.9185944c-0.9140244-0.9191971-2.7459717-1.7761536-2.3762436-2.9474869
	c0.46772-1.4817963,2.1773224-0.1707382,3.3303909-0.233017
	C131.8921509,106.2907181,135.0590668,106.4023361,138.8391113,106.4023361z"/>
<path fill="#233E64" d="M90.416214,124.8979263c-1.8200684,0.1857071-0.6169891,1.151268-0.3198624,1.6240463
	c1.2387161,1.9709778,2.5849609,3.8743896,3.8920288,5.8025055c-5.7781982-0.5342102-9.4102859-6.8480301-6.9517136-12.0830612
	c0.3153381-0.6714554,0.7486877-1.1245499,1.5453568-0.7398071
	C89.7568588,120.0689697,90.8820724,123.4192352,90.416214,124.8979263z"/>
<path fill="#E8E6E3" d="M137.4637451,56.5271034c4.3720551-2.8938103,8.1304474-5.3814316,12.3509674-8.174942
	c-0.6564484,3.9243927-3.0298157,6.1974106-4.8322144,8.7763023c-0.3841095,0.5495644-1.0160522,0.3917046-1.6123352,0.2913666
	C141.6740723,57.1344223,139.9692383,56.9009857,137.4637451,56.5271034z"/>
<path fill="#2F3437" d="M125.1185913,54.882637c0.7819672,0.4362068,1.5639343,0.8724022,2.9242706,1.6312485
	c-4.0614243,1.183403-7.6119156,1.8149033-11.2452316,1.1063957c-1.1716156-0.2284813-1.6358337-1.5242729-1.6757507-2.7708969
	c2.7032852,1.4758339,5.5864029,1.7879486,8.9736099,1.2715759c-4.0490189-1.7880707-7.5928802-3.8458786-11.0775757-6.0090332
	c0.5474701,1.6672478,2.6275101,2.618351,2.1087112,4.7428284c-2.69944-2.2612114-4.7185745-4.9710007-5.571312-8.4492493
	c1.7888107,0.3292694,3.0711441,1.6312866,4.4911804,2.5605278
	C117.5735016,51.2740555,121.4557495,52.8631477,125.1185913,54.882637z"/>
<path fill="#26416A" d="M85.8736725,52.8940468c0.09095-1.6100578,0.8815613-2.9973907,1.49897-4.4198685
	c0.7199783-1.658741,0.2638474-2.4128532-1.4922714-2.6163406c-0.8105011-0.0939102-1.5957336-0.4058495-2.3915405-0.6195717
	c1.2376633-0.8359184,6.3659515-1.0593109,7.2947159-0.1816902c0.8091888,0.7646332,0.6857376,1.8576965,0.1405792,2.7084694
	c-0.995636,1.5538025-2.124321,3.0241394-3.2322083,4.5033073C87.2504196,52.8578224,86.551857,52.8920212,85.8736725,52.8940468z"
	/>
<path fill="#2F2E2A" d="M151.2374115,59.9381447c0.881073-0.7267151,1.7621307-1.4534264,3.0980225-2.5552673
	c0,2.1484413,0,3.8558617,0.0006561,5.5632324c-0.5093231,5.3924599,1.130249,10.6590538,0.9407043,16.0338554
	c-0.0377502,1.070694,0.1193695,2.1667175-0.5466614,3.1240387c-0.9600372-3.5694962-0.1980591-7.2660294-0.8706055-10.8869095
	c-0.6052551-3.2585526-0.781662-6.6081619-0.9702606-9.9276581c-0.0873566-1.5376434-0.8738403-0.9597893-1.6148071-0.822422
	c-0.157547-0.1070671-0.2154541-0.2210808-0.1740417-0.342144
	C151.1429901,60.0004158,151.1885681,59.9381371,151.2374115,59.9381447z"/>
<path fill="#252912" d="M161.3143311,109.6862106c1.2245789,3.4485168,1.6814117,6.9846649,1.2310944,10.62854
	c-0.1012573,0.8193893-0.1593475,1.6441269-0.2373962,2.4664459c-0.8726044-0.8308792-0.4606628-1.8974533-0.4701233-2.8567734
	C161.804184,116.5031357,161.8981781,113.0784988,161.3143311,109.6862106z"/>
<path fill="#2C3015" d="M142.2156372,135.3834839c-1.1132202-3.2245331-0.3504028-6.5506134-0.4721832-9.8251877
	c-0.0592651-1.5939713-0.5391693-3.3096085,0.4703369-4.8308411
	C142.2144318,125.6124496,142.2150269,130.4979553,142.2156372,135.3834839z"/>
<path fill="#2C3014" d="M161.3130341,55.8988914c1.3857117,3.4001503,0.977066,7.059063,1.5258484,10.5800209
	C161.4150848,63.0843277,161.8025513,59.4283676,161.3130341,55.8988914z"/>
<path fill="#323513" d="M152.7519226,99.672821c0.0128021,0.1584854,0.0308533,0.3163605,0.0545349,0.4735947
	c-0.9488678,1.611618-2.6505585,2.310463-4.1348572,3.2915192
	C149.6567993,101.7846832,151.3880005,100.9213257,152.7519226,99.672821z"/>
<path fill="#313414" d="M183.9498749,7.1692953c0.7894592,2.3326674,0.7994843,4.6644936-0.0074768,6.9952011
	C183.944931,11.8325968,183.947403,9.500946,183.9498749,7.1692953z"/>
<path fill="#234373" d="M58.2411919,131.8005371c1.9061737-3.5343933,1.8739471-3.453064-1.615139-4.8355637
	c-3.3326988-1.3205032-6.5886383-2.8347092-9.8779335-4.264267c1.1062012-3.7272873,2.2110901-7.4543533,3.3189964-11.180542
	c0.1429024-0.4806061,0.240284-0.9874573,0.463356-1.4293365c0.9889793-1.9590836,0.1180611-2.7596893-1.7493286-3.3441467
	c-3.5087471-1.0981445-6.9408913-2.4386368-10.4299469-3.6032944c-1.4912186-0.4977722-1.9014282-1.1789703-1.3625526-2.7831497
	c1.6226311-4.8304367,2.9446678-9.763176,4.6174011-14.574852c0.7602043-2.1867599,0.3749237-3.0585938-1.9171028-3.6853027
	C27.592308,78.7924881,15.6920071,74.8583298,3.9394121,70.4797897c0.3686481-0.6160583,0.9843936-0.5418472,1.5623703-0.5463791
	c8.4258337-0.0661011,16.8148689,0.4655075,25.1058273,1.9789124c6.6138725,1.2072754,13.1699257,2.729393,19.7779694,3.9717255
	c1.769249,0.3326187,1.6794815,0.889122,1.1069908,2.3153534c-2.7478752,6.8457184-5.8926163,13.5282364-8.365406,20.4887619
	c-0.681282,1.9177094-0.4673462,2.8398972,1.7427711,3.2286453c4.1760216,0.7345428,8.3613853,1.371788,12.5847168,1.6769409
	c1.635643,0.1181793,1.5068703,0.5978165,1.2462311,2.0050125c-0.6398506,3.4546814-2.1789017,6.7463837-1.9696732,10.3568192
	c0.0048409,0.0834351,0.030529,0.1850891-0.0055542,0.2487106c-2.1694984,3.8246078,0.7381706,4.5684662,3.3202705,5.7955933
	c5.4751091,2.6020355,5.4338875,2.6887512,2.8296165,8.1686783c-2.3832207,5.0147705-2.3844757,5.0175629,2.7219009,7.3317413
	c0.3754578,0.1701508,0.7879257,0.2585907,1.1830444,0.3851471c0.5493393,0.5677795,1.498558,0.7580566,1.5106888,1.8280334
	c0.0162048,1.4282227,0.0074081,2.5677643-2.0161743,1.7779083c-2.7889175-1.0885315-5.6171684-2.0904388-8.4730988-2.9877014
	c-1.6346436-0.5135803-1.9079704-1.3482513-1.2200279-2.7980957
	C57.1876564,134.4289093,57.6920319,133.1041107,58.2411919,131.8005371z"/>
<path fill="#244271" d="M76.021698,114.5443344c-0.9364395,0.1875687-1.2203903-0.2347183-1.0024414-1.1071854
	c0.0202179-0.0809174,0.0507736-0.1592026,0.0716553-0.2399826c0.5108948-1.9761581,0.1304474-5.1983414,1.8173065-5.5990448
	c2.1813049-0.5181656,4.7366104,1.0944061,6.9159622,2.3176651c1.3979797,0.7846985,0.7925568,1.6288605-0.2232819,2.2219086
	C81.2628021,113.5027161,78.6382294,114.0172424,76.021698,114.5443344z"/>
<path fill="#244271" d="M69.3427811,140.8614655c0.1195984-0.5680542,0.2743301-1.1312866,0.3531342-1.7049713
	c0.5515518-4.0152588,0.5471725-4.0175629,4.5018692-2.4640961c0.6947556,0.2728882,1.4085693,0.5149078,2.0653,0.8624268
	c0.773613,0.4093475,2.0232773,0.5358887,2.010231,1.5987549c-0.0151749,1.2357635-1.2325974,1.7216797-2.2315292,2.0770569
	c-1.5586472,0.5545044-3.1866455,0.910675-4.7714844,1.395874C69.58564,143.1422577,69.1414795,142.3842316,69.3427811,140.8614655z
	"/>
<path fill="#03161A" d="M151.2373962,59.9381371c0.0123291,0.1762619,0.0246735,0.35252,0.0370331,0.5288277
	c-2.4742889,2.5463066-5.8416443,3.0759354-9.0461121,3.8413315c-3.3777466,0.8067856-6.3648529,2.3553238-9.2676849,4.1513901
	c-0.5090332,0.314949-0.8912811,1.1970215-1.6283264,0.4018478c-3.7158661-4.0089645-8.8770142-4.5900421-13.7604904-5.8324547
	c-0.1608658-0.0409241-0.327652-0.0585594-0.491684-0.0870857c-1.3495331-1.2134705-3.633934-0.6351318-4.6762466-2.4390793
	c3.4948425,1.028019,6.9896851,2.0593872,10.4878616,3.0792389c0.471138,0.1373558,1.1795197,0.4756851,1.4057236,0.283268
	c2.5697708-2.1858749,3.8101501,1.471714,5.9215088,1.3228569c0.4328918-0.0305252,0.0188751,0.730072,0.1137543,1.0707016
	c0.3934784,1.4125061,2.2007904,2.0458221,2.725296,0.929512c0.6770782-1.44104,1.8625183-1.0134354,2.8154755-1.4696121
	c4.0302277-1.9292412,8.4212494-2.6449623,12.556778-4.1625023
	C149.4293976,61.1897507,150.3050079,60.486557,151.2373962,59.9381371z"/>
<path fill="#624538" d="M122.527359,76.3011627c2.9529648-3.0082321,17.3536835-2.9446945,20.6632996-0.0232697
	C136.3046875,75.2422638,129.6062164,74.7579727,122.527359,76.3011627z"/>
<path fill="#4B3730" d="M120.1294479,67.9967422c-3.2116241,2.1722031-4.8750229,5.5120392-6.5869141,9.1481018
	c-0.9536972-1.6402435,1.014473-2.4482498,0.4985275-3.6613388c1.3594818-2.4251404,3.3880005-4.2945938,5.2397079-6.310997
	c0.4072189-0.4434357,0.950119-0.9966507,1.4612198-0.4703751
	C121.3690338,67.3478394,120.5358734,67.6472321,120.1294479,67.9967422z"/>
<path fill="#5D4334" d="M128.1308289,82.7475662c1.7457123-1.6536636,6.2009277-1.6756516,8.2895355-0.0284805
	C133.7308197,82.4939041,131.0425415,82.5224228,128.1308289,82.7475662z"/>
<path fill="#03161A" d="M128.9592133,51.9157944c0.8704834-0.0276299,1.1713562,0.4569778,1.1717377,1.257061
	c0.0003967,0.8316536-0.3672791,1.2675896-1.2168579,1.1789207c-0.776947-0.0810928-1.195343-0.5553436-1.2376709-1.3260422
	C127.6268692,52.1240005,128.1829376,51.8807068,128.9592133,51.9157944z"/>
<path fill="#E3E3E3" d="M115.1266251,54.8547554c-0.7226105-2.1060677-2.6304245-3.568428-3.3887711-6.1564636
	c4.7915268,2.6617393,9.066658,5.4448929,13.6555252,7.7886276c-3.4840469-0.4246864-7.4204178,2.3993225-10.2715302-1.6375351
	C115.1218796,54.8493843,115.1266251,54.8547554,115.1266251,54.8547554z"/>
</svg>
